<mxfile host="Electron" modified="2024-07-22T02:56:03.087Z" agent="Mozilla/5.0 (Macintosh; Intel Mac OS X 10_15_7) AppleWebKit/537.36 (KHTML, like Gecko) draw.io/24.6.4 Chrome/124.0.6367.207 Electron/30.0.6 Safari/537.36" etag="Er7Od8dEfgTQbNIiloiL" version="24.6.4" type="device">
  <diagram name="Page-1" id="5w7pE6e7P3Jpi4yHS1Fw">
    <mxGraphModel dx="1010" dy="662" grid="1" gridSize="10" guides="1" tooltips="1" connect="1" arrows="1" fold="1" page="1" pageScale="1" pageWidth="850" pageHeight="1100" math="0" shadow="0">
      <root>
        <mxCell id="0" />
        <mxCell id="1" parent="0" />
        <mxCell id="rDWo46AAwwMIu8RIhDYh-1" value="AWS Account" style="points=[[0,0],[0.25,0],[0.5,0],[0.75,0],[1,0],[1,0.25],[1,0.5],[1,0.75],[1,1],[0.75,1],[0.5,1],[0.25,1],[0,1],[0,0.75],[0,0.5],[0,0.25]];outlineConnect=0;gradientColor=none;html=1;whiteSpace=wrap;fontSize=12;fontStyle=0;container=1;pointerEvents=0;collapsible=0;recursiveResize=0;shape=mxgraph.aws4.group;grIcon=mxgraph.aws4.group_account;strokeColor=#CD2264;fillColor=none;verticalAlign=top;align=left;spacingLeft=30;fontColor=#CD2264;dashed=0;" vertex="1" parent="1">
          <mxGeometry x="70" y="70" width="360" height="440" as="geometry" />
        </mxCell>
        <mxCell id="rDWo46AAwwMIu8RIhDYh-2" value="VPC" style="points=[[0,0],[0.25,0],[0.5,0],[0.75,0],[1,0],[1,0.25],[1,0.5],[1,0.75],[1,1],[0.75,1],[0.5,1],[0.25,1],[0,1],[0,0.75],[0,0.5],[0,0.25]];outlineConnect=0;gradientColor=none;html=1;whiteSpace=wrap;fontSize=12;fontStyle=0;container=1;pointerEvents=0;collapsible=0;recursiveResize=0;shape=mxgraph.aws4.group;grIcon=mxgraph.aws4.group_vpc2;strokeColor=#8C4FFF;fillColor=none;verticalAlign=top;align=left;spacingLeft=30;fontColor=#AAB7B8;dashed=0;" vertex="1" parent="rDWo46AAwwMIu8RIhDYh-1">
          <mxGeometry x="10" y="30" width="340" height="400" as="geometry" />
        </mxCell>
        <mxCell id="rDWo46AAwwMIu8RIhDYh-3" value="Private subnet" style="points=[[0,0],[0.25,0],[0.5,0],[0.75,0],[1,0],[1,0.25],[1,0.5],[1,0.75],[1,1],[0.75,1],[0.5,1],[0.25,1],[0,1],[0,0.75],[0,0.5],[0,0.25]];outlineConnect=0;gradientColor=none;html=1;whiteSpace=wrap;fontSize=12;fontStyle=0;container=1;pointerEvents=0;collapsible=0;recursiveResize=0;shape=mxgraph.aws4.group;grIcon=mxgraph.aws4.group_security_group;grStroke=0;strokeColor=#00A4A6;fillColor=#E6F6F7;verticalAlign=top;align=left;spacingLeft=30;fontColor=#147EBA;dashed=0;" vertex="1" parent="rDWo46AAwwMIu8RIhDYh-2">
          <mxGeometry x="10" y="30" width="150" height="360" as="geometry" />
        </mxCell>
        <mxCell id="rDWo46AAwwMIu8RIhDYh-4" value="RDS" style="sketch=0;points=[[0,0,0],[0.25,0,0],[0.5,0,0],[0.75,0,0],[1,0,0],[0,1,0],[0.25,1,0],[0.5,1,0],[0.75,1,0],[1,1,0],[0,0.25,0],[0,0.5,0],[0,0.75,0],[1,0.25,0],[1,0.5,0],[1,0.75,0]];outlineConnect=0;fontColor=#232F3E;fillColor=#C925D1;strokeColor=#ffffff;dashed=0;verticalLabelPosition=bottom;verticalAlign=top;align=center;html=1;fontSize=12;fontStyle=0;aspect=fixed;shape=mxgraph.aws4.resourceIcon;resIcon=mxgraph.aws4.rds;" vertex="1" parent="rDWo46AAwwMIu8RIhDYh-3">
          <mxGeometry x="36" y="56" width="78" height="78" as="geometry" />
        </mxCell>
        <mxCell id="rDWo46AAwwMIu8RIhDYh-5" value="Security group" style="fillColor=none;strokeColor=#DD3522;verticalAlign=top;fontStyle=0;fontColor=#DD3522;whiteSpace=wrap;html=1;" vertex="1" parent="rDWo46AAwwMIu8RIhDYh-3">
          <mxGeometry x="10" y="30" width="130" height="130" as="geometry" />
        </mxCell>
        <mxCell id="rDWo46AAwwMIu8RIhDYh-13" style="edgeStyle=orthogonalEdgeStyle;rounded=0;orthogonalLoop=1;jettySize=auto;html=1;startArrow=none;startFill=0;" edge="1" parent="rDWo46AAwwMIu8RIhDYh-3" source="rDWo46AAwwMIu8RIhDYh-7" target="rDWo46AAwwMIu8RIhDYh-5">
          <mxGeometry relative="1" as="geometry" />
        </mxCell>
        <mxCell id="rDWo46AAwwMIu8RIhDYh-7" value="Security group" style="fillColor=none;strokeColor=#DD3522;verticalAlign=top;fontStyle=0;fontColor=#DD3522;whiteSpace=wrap;html=1;" vertex="1" parent="rDWo46AAwwMIu8RIhDYh-3">
          <mxGeometry x="10" y="200" width="130" height="150" as="geometry" />
        </mxCell>
        <mxCell id="rDWo46AAwwMIu8RIhDYh-8" value="Secret Rotation&amp;nbsp;&lt;div&gt;Lambda&lt;/div&gt;" style="sketch=0;points=[[0,0,0],[0.25,0,0],[0.5,0,0],[0.75,0,0],[1,0,0],[0,1,0],[0.25,1,0],[0.5,1,0],[0.75,1,0],[1,1,0],[0,0.25,0],[0,0.5,0],[0,0.75,0],[1,0.25,0],[1,0.5,0],[1,0.75,0]];outlineConnect=0;fontColor=#232F3E;fillColor=#ED7100;strokeColor=#ffffff;dashed=0;verticalLabelPosition=bottom;verticalAlign=top;align=center;html=1;fontSize=12;fontStyle=0;aspect=fixed;shape=mxgraph.aws4.resourceIcon;resIcon=mxgraph.aws4.lambda;" vertex="1" parent="rDWo46AAwwMIu8RIhDYh-3">
          <mxGeometry x="36" y="230" width="78" height="78" as="geometry" />
        </mxCell>
        <mxCell id="rDWo46AAwwMIu8RIhDYh-14" value="Public subnet" style="points=[[0,0],[0.25,0],[0.5,0],[0.75,0],[1,0],[1,0.25],[1,0.5],[1,0.75],[1,1],[0.75,1],[0.5,1],[0.25,1],[0,1],[0,0.75],[0,0.5],[0,0.25]];outlineConnect=0;gradientColor=none;html=1;whiteSpace=wrap;fontSize=12;fontStyle=0;container=1;pointerEvents=0;collapsible=0;recursiveResize=0;shape=mxgraph.aws4.group;grIcon=mxgraph.aws4.group_security_group;grStroke=0;strokeColor=#7AA116;fillColor=#F2F6E8;verticalAlign=top;align=left;spacingLeft=30;fontColor=#248814;dashed=0;" vertex="1" parent="rDWo46AAwwMIu8RIhDYh-2">
          <mxGeometry x="180" y="30" width="150" height="170" as="geometry" />
        </mxCell>
        <mxCell id="rDWo46AAwwMIu8RIhDYh-16" value="Security group" style="fillColor=none;strokeColor=#DD3522;verticalAlign=top;fontStyle=0;fontColor=#DD3522;whiteSpace=wrap;html=1;" vertex="1" parent="rDWo46AAwwMIu8RIhDYh-14">
          <mxGeometry x="10" y="30" width="130" height="130" as="geometry" />
        </mxCell>
        <mxCell id="rDWo46AAwwMIu8RIhDYh-17" value="Bastion Host" style="sketch=0;points=[[0,0,0],[0.25,0,0],[0.5,0,0],[0.75,0,0],[1,0,0],[0,1,0],[0.25,1,0],[0.5,1,0],[0.75,1,0],[1,1,0],[0,0.25,0],[0,0.5,0],[0,0.75,0],[1,0.25,0],[1,0.5,0],[1,0.75,0]];outlineConnect=0;fontColor=#232F3E;fillColor=#ED7100;strokeColor=#ffffff;dashed=0;verticalLabelPosition=bottom;verticalAlign=top;align=center;html=1;fontSize=12;fontStyle=0;aspect=fixed;shape=mxgraph.aws4.resourceIcon;resIcon=mxgraph.aws4.ec2;" vertex="1" parent="rDWo46AAwwMIu8RIhDYh-14">
          <mxGeometry x="36" y="56" width="78" height="78" as="geometry" />
        </mxCell>
        <mxCell id="rDWo46AAwwMIu8RIhDYh-18" style="edgeStyle=orthogonalEdgeStyle;rounded=0;orthogonalLoop=1;jettySize=auto;html=1;entryX=1;entryY=0.5;entryDx=0;entryDy=0;startArrow=classic;startFill=1;" edge="1" parent="rDWo46AAwwMIu8RIhDYh-2" source="rDWo46AAwwMIu8RIhDYh-16" target="rDWo46AAwwMIu8RIhDYh-5">
          <mxGeometry relative="1" as="geometry" />
        </mxCell>
        <mxCell id="rDWo46AAwwMIu8RIhDYh-22" style="edgeStyle=orthogonalEdgeStyle;rounded=0;orthogonalLoop=1;jettySize=auto;html=1;" edge="1" parent="1" source="rDWo46AAwwMIu8RIhDYh-19" target="rDWo46AAwwMIu8RIhDYh-20">
          <mxGeometry relative="1" as="geometry" />
        </mxCell>
        <mxCell id="rDWo46AAwwMIu8RIhDYh-19" value="User" style="shape=umlActor;verticalLabelPosition=bottom;verticalAlign=top;html=1;outlineConnect=0;" vertex="1" parent="1">
          <mxGeometry x="570" y="195" width="30" height="60" as="geometry" />
        </mxCell>
        <mxCell id="rDWo46AAwwMIu8RIhDYh-21" style="edgeStyle=orthogonalEdgeStyle;rounded=0;orthogonalLoop=1;jettySize=auto;html=1;entryX=1;entryY=0.5;entryDx=0;entryDy=0;startArrow=classic;startFill=1;" edge="1" parent="1" source="rDWo46AAwwMIu8RIhDYh-20" target="rDWo46AAwwMIu8RIhDYh-16">
          <mxGeometry relative="1" as="geometry" />
        </mxCell>
        <mxCell id="rDWo46AAwwMIu8RIhDYh-20" value="SQL Client" style="sketch=0;outlineConnect=0;fontColor=#232F3E;gradientColor=none;fillColor=#232F3D;strokeColor=none;dashed=0;verticalLabelPosition=bottom;verticalAlign=top;align=center;html=1;fontSize=12;fontStyle=0;aspect=fixed;pointerEvents=1;shape=mxgraph.aws4.client;" vertex="1" parent="1">
          <mxGeometry x="450" y="187" width="78" height="76" as="geometry" />
        </mxCell>
      </root>
    </mxGraphModel>
  </diagram>
</mxfile>
